<!DOCTYPE svg PUBLIC "-//W3C//DTD SVG 1.1//EN" "http://www.w3.org/Graphics/SVG/1.1/DTD/svg11.dtd">
<!-- Uploaded to: SVG Repo, www.svgrepo.com, Transformed by: SVG Repo Mixer Tools -->
<svg fill="#ffffff" version="1.1" id="Capa_1" xmlns="http://www.w3.org/2000/svg" xmlns:xlink="http://www.w3.org/1999/xlink" width="800px" height="800px" viewBox="0 0 98.258 98.258" xml:space="preserve" stroke="#ffffff">
<g id="SVGRepo_bgCarrier" stroke-width="0"/>
<g id="SVGRepo_tracerCarrier" stroke-linecap="round" stroke-linejoin="round"/>
<g id="SVGRepo_iconCarrier"> <g> <g> <path d="M22.332,37.353c10.3,0,18.678-8.378,18.678-18.678S32.632,0,22.332,0C12.032,0,3.654,8.378,3.654,18.678 C3.654,28.978,12.032,37.353,22.332,37.353z"/> <path d="M22.332,98.256c10.3,0,18.678-8.379,18.678-18.678c0-10.301-8.378-18.676-18.678-18.676 c-10.3,0-18.678,8.379-18.678,18.678C3.654,89.881,12.032,98.256,22.332,98.256z"/> <path d="M75.928,0.001c-10.301,0-18.679,8.377-18.679,18.677c0,10.3,8.378,18.678,18.679,18.678 c10.299,0,18.676-8.378,18.676-18.678C94.604,8.378,86.227,0.001,75.928,0.001z"/> <path d="M94.604,79.58c0-10.299-8.377-18.678-18.678-18.678c-10.3,0-18.678,8.379-18.678,18.678 c0,10.301,8.378,18.678,18.678,18.678C86.227,98.258,94.604,89.877,94.604,79.58z"/> </g> </g> </g>
</svg>